<svg width="21.596191" height="13.630005" viewBox="0 0 21.5962 13.63" fill="none" xmlns="http://www.w3.org/2000/svg" xmlns:xlink="http://www.w3.org/1999/xlink">
	<desc>
			Created with Pixso.
	</desc>
	<defs/>
	<g opacity="0.300000">
		<path id="Behance" d="M19.49 0.69L14.02 0.69L14.02 2.21L19.51 2.21L19.49 0.69ZM18.34 11.15C17.92 11.43 17.43 11.57 16.93 11.55C16.6 11.59 16.27 11.55 15.96 11.45C15.64 11.35 15.35 11.19 15.1 10.97C14.64 10.45 14.4 9.77 14.43 9.07L21.57 9.07C21.63 8.34 21.56 7.62 21.39 6.91C21.22 6.24 20.93 5.61 20.53 5.05C20.12 4.5 19.6 4.05 19 3.74C18.32 3.41 17.58 3.24 16.84 3.25C16.13 3.25 15.44 3.38 14.79 3.65C14.19 3.9 13.65 4.27 13.2 4.73C12.75 5.2 12.4 5.76 12.18 6.37C11.93 7.03 11.81 7.73 11.82 8.43C11.81 9.15 11.93 9.85 12.17 10.53C12.37 11.13 12.69 11.7 13.11 12.18C13.55 12.65 14.09 13.02 14.69 13.26C15.36 13.51 16.07 13.63 16.78 13.62C17.79 13.65 18.78 13.39 19.63 12.87C20.5 12.25 21.12 11.36 21.39 10.33L19.01 10.33C18.88 10.67 18.64 10.96 18.34 11.15ZM14.64 6.71C14.72 6.44 14.86 6.19 15.05 5.98C15.23 5.77 15.46 5.59 15.72 5.48C16.05 5.32 16.42 5.25 16.79 5.26C17.06 5.24 17.33 5.27 17.59 5.36C17.84 5.46 18.07 5.6 18.26 5.79C18.63 6.24 18.86 6.78 18.94 7.35L14.46 7.35C14.48 7.13 14.52 6.92 14.58 6.71L14.64 6.71ZM8.93 6.19C9.48 5.96 9.95 5.59 10.31 5.11C10.64 4.6 10.8 4.01 10.77 3.41C10.79 2.86 10.69 2.31 10.46 1.81C10.27 1.37 9.96 1 9.58 0.73C9.16 0.45 8.7 0.26 8.21 0.17C7.62 0.05 7.03 -0.01 6.44 0L0 0L0 13.57L6.58 13.57C7.18 13.57 7.78 13.49 8.36 13.34C8.91 13.2 9.43 12.96 9.9 12.64C10.35 12.33 10.73 11.9 10.98 11.41C11.26 10.86 11.4 10.25 11.38 9.63C11.4 8.87 11.18 8.11 10.76 7.47C10.31 6.83 9.64 6.37 8.87 6.19L8.93 6.19ZM2.98 2.32L5.78 2.32C6.03 2.32 6.29 2.34 6.54 2.38C6.78 2.41 7 2.5 7.2 2.62C7.4 2.73 7.55 2.89 7.66 3.09C7.78 3.33 7.84 3.6 7.83 3.87C7.85 4.1 7.81 4.33 7.72 4.55C7.64 4.77 7.5 4.96 7.32 5.11C6.93 5.38 6.47 5.51 6 5.49L2.98 5.49L2.98 2.32ZM8.21 10.34C8.09 10.56 7.93 10.75 7.72 10.88C7.5 11.02 7.27 11.11 7.02 11.16C6.74 11.22 6.46 11.25 6.18 11.25L2.94 11.25L2.94 7.53L6.18 7.53C6.73 7.5 7.28 7.66 7.74 7.97C7.95 8.16 8.11 8.39 8.21 8.65C8.31 8.91 8.35 9.19 8.32 9.47C8.35 9.77 8.31 10.06 8.21 10.34Z" fill="#FFFFFF" fill-opacity="1.000000" fill-rule="nonzero"/>
	</g>
</svg>
