<svg width="18.000000" height="17.000000" viewBox="0 0 18 17" fill="none" xmlns="http://www.w3.org/2000/svg" xmlns:xlink="http://www.w3.org/1999/xlink">
	<desc>
			Created with Pixso.
	</desc>
	<defs/>
	<g opacity="0.300000">
		<path id="LinkedIn" d="M0 1.97C0 1.4 0.2 0.93 0.6 0.55C1.01 0.18 1.54 0 2.18 0C2.82 0 3.34 0.18 3.73 0.54C4.14 0.92 4.34 1.41 4.34 2.02C4.34 2.57 4.14 3.03 3.75 3.39C3.34 3.77 2.81 3.96 2.15 3.96L2.13 3.96C1.5 3.96 0.98 3.77 0.59 3.39C0.19 3.02 0 2.54 0 1.97ZM0.22 17L0.22 5.52L4.08 5.52L4.08 17L0.22 17ZM6.21 17L10.07 17L10.07 10.59C10.07 10.19 10.12 9.88 10.21 9.66C10.37 9.27 10.62 8.94 10.95 8.68C11.28 8.41 11.69 8.27 12.19 8.27C13.49 8.27 14.14 9.14 14.14 10.86L14.14 17L18 17L18 10.42C18 8.72 17.59 7.44 16.78 6.56C15.97 5.69 14.9 5.25 13.56 5.25C12.07 5.25 10.91 5.88 10.07 7.16L10.07 7.19L10.05 7.19L10.07 7.16L10.07 5.52L6.21 5.52C6.24 5.89 6.25 7.03 6.25 8.94C6.25 10.85 6.24 13.54 6.21 17Z" fill="#FFFFFF" fill-opacity="1.000000" fill-rule="nonzero"/>
	</g>
</svg>
