<svg width="17.541748" height="14.279999" viewBox="0 0 17.5417 14.28" fill="none" xmlns="http://www.w3.org/2000/svg" xmlns:xlink="http://www.w3.org/1999/xlink">
	<desc>
			Created with Pixso.
	</desc>
	<defs/>
	<g opacity="0.300000">
		<path id="Twitter" d="M17.54 1.71C16.88 1.99 16.18 2.18 15.47 2.27C16.22 1.82 16.78 1.11 17.05 0.28C16.35 0.7 15.57 0.99 14.77 1.15C14.23 0.57 13.51 0.18 12.72 0.05C11.94 -0.09 11.13 0.04 10.43 0.42C9.72 0.79 9.17 1.39 8.84 2.12C8.51 2.85 8.44 3.66 8.63 4.43C7.2 4.36 5.8 3.99 4.52 3.34C3.24 2.69 2.12 1.78 1.21 0.67C0.9 1.22 0.73 1.85 0.73 2.49C0.73 3.08 0.88 3.66 1.15 4.18C1.43 4.7 1.84 5.15 2.33 5.48C1.76 5.46 1.2 5.31 0.7 5.03L0.7 5.07C0.7 5.9 0.99 6.7 1.52 7.34C2.05 7.98 2.78 8.42 3.59 8.58C3.28 8.68 2.95 8.73 2.63 8.73C2.4 8.73 2.17 8.71 1.95 8.67C2.18 9.38 2.63 10.01 3.23 10.45C3.83 10.9 4.56 11.15 5.31 11.16C4.04 12.16 2.48 12.7 0.87 12.7C0.58 12.71 0.29 12.69 0 12.65C1.64 13.71 3.55 14.28 5.51 14.27C6.86 14.29 8.2 14.03 9.45 13.52C10.7 13.01 11.84 12.26 12.8 11.31C13.75 10.35 14.51 9.22 15.02 7.97C15.53 6.72 15.79 5.38 15.78 4.03C15.78 3.88 15.78 3.72 15.78 3.57C16.47 3.05 17.06 2.42 17.54 1.71Z" fill="#FFFFFF" fill-opacity="1.000000" fill-rule="nonzero"/>
	</g>
</svg>
