<svg width="160.000000" height="60.000000" viewBox="0 0 160 60" fill="none" xmlns="http://www.w3.org/2000/svg" xmlns:xlink="http://www.w3.org/1999/xlink">
	<desc>
			Created with Pixso.
	</desc>
	<defs>
		<clipPath id="clip205_13">
			<rect id="clickup logo 1" rx="0.000000" width="81.318825" height="19.000000" transform="translate(39.500000 20.500000) rotate(-0.003846)" fill="white" fill-opacity="0"/>
		</clipPath>
	</defs>
	<rect id="Rectangle 3" x="0.500000" y="0.500000" rx="6.000000" width="159.000000" height="59.000000" stroke="#1B1B1B" stroke-opacity="1.000000" stroke-width="1.000000"/>
	<g opacity="0.300000">
		<rect id="clickup logo 1" rx="0.000000" width="81.318825" height="19.000000" transform="translate(39.500000 20.500000) rotate(-0.003846)" fill="#FFFFFF" fill-opacity="0"/>
		<g clip-path="url(#clip205_13)">
			<path id="Vector" d="M39.23 34.74L42.16 32.5C43.72 34.53 45.37 35.47 47.22 35.47C49.05 35.47 50.66 34.54 52.15 32.52L55.12 34.72C52.98 37.63 50.31 39.16 47.22 39.16C44.14 39.16 41.44 37.64 39.23 34.74Z" fill="#FFFFFF" fill-opacity="1.000000" fill-rule="evenodd"/>
			<path id="Vector" d="M47.21 24.98L41.99 29.48L39.57 26.68L47.22 20.09L54.8 26.68L52.38 29.47L47.21 24.98Z" fill="#FFFFFF" fill-opacity="1.000000" fill-rule="evenodd"/>
			<path id="Vector" d="M72.2 23.88L75.15 23.88L75.15 36.2L72.2 36.2L72.2 23.88Z" fill="#FFFFFF" fill-opacity="1.000000" fill-rule="evenodd"/>
			<path id="Vector" d="M66.22 36.26C64.48 36.26 63.02 35.7 61.85 34.57C60.67 33.42 60.09 31.95 60.09 30.16C60.09 28.35 60.68 26.87 61.86 25.7C63.06 24.53 64.51 23.95 66.24 23.95C68.37 23.95 70.25 24.86 71.35 26.3L69.43 28.32C68.51 27.33 67.51 26.83 66.43 26.83C65.51 26.83 64.75 27.14 64.12 27.77C63.51 28.4 63.2 29.19 63.2 30.14C63.2 31.06 63.51 31.84 64.12 32.47C64.75 33.08 65.51 33.39 66.41 33.39C67.59 33.39 68.62 32.87 69.48 31.85L71.48 33.77C70.93 34.5 70.19 35.1 69.27 35.57C68.35 36.03 67.33 36.26 66.22 36.26Z" fill="#FFFFFF" fill-opacity="1.000000" fill-rule="evenodd"/>
			<path id="Vector" d="M79.59 24.87C79.59 25.75 78.87 26.47 77.99 26.47C77.1 26.47 76.38 25.75 76.38 24.87C76.38 23.99 77.1 23.27 77.99 23.27C78.87 23.27 79.59 23.99 79.59 24.87ZM79.46 27.21L76.51 27.21L76.51 36.2L79.46 36.2L79.46 27.21Z" fill="#FFFFFF" fill-opacity="1.000000" fill-rule="evenodd"/>
			<path id="Vector" d="M85.18 36.27C83.78 36.27 82.65 35.84 81.76 34.97C80.89 34.1 80.45 32.98 80.45 31.61C80.45 30.24 80.89 29.13 81.77 28.25C82.66 27.38 83.81 26.95 85.23 26.95C87.08 26.95 88.71 27.85 89.47 29.54L87.2 30.74C86.75 29.98 86.12 29.59 85.29 29.59C84.7 29.59 84.21 29.79 83.82 30.17C83.45 30.56 83.26 31.05 83.26 31.61C83.26 32.79 84.12 33.66 85.26 33.66C86.08 33.66 86.84 33.21 87.17 32.51L89.44 33.87C88.67 35.35 87.07 36.27 85.18 36.27Z" fill="#FFFFFF" fill-opacity="1.000000" fill-rule="evenodd"/>
			<path id="Vector" d="M93.14 23.88L90.18 23.88L90.18 36.2L93.14 36.2L93.14 33.07L93.49 32.74L96.19 36.2L99.63 36.2L95.48 30.89L99.42 27.21L95.81 27.21L93.14 29.7L93.14 23.88Z" fill="#FFFFFF" fill-opacity="1.000000" fill-rule="evenodd"/>
			<path id="Vector" d="M100.16 31.55L100.16 23.88L103.24 23.88L103.24 31.38C103.24 32.72 104.02 33.36 105.15 33.36C106.27 33.36 107.06 32.68 107.06 31.38L107.06 23.88L110.14 23.88L110.14 31.55C110.14 35.07 107.67 36.39 105.15 36.39C102.65 36.39 100.16 35.07 100.16 31.55Z" fill="#FFFFFF" fill-opacity="1.000000" fill-rule="evenodd"/>
			<path id="Vector" d="M116.8 36.45C119.18 36.45 121.11 34.35 121.11 31.77C121.11 29.18 119.18 27.08 116.8 27.08C115.82 27.09 114.93 27.43 114.21 28.02L114.21 27.21L111.37 27.21L111.38 39.9L114.21 39.9L114.21 35.51C114.93 36.1 115.83 36.45 116.8 36.45ZM114.21 31.77L114.21 31.76C114.21 30.61 115.12 29.67 116.24 29.67C117.36 29.67 118.27 30.61 118.27 31.77C118.27 32.92 117.36 33.86 116.24 33.86C115.12 33.86 114.21 32.93 114.21 31.77Z" fill="#FFFFFF" fill-opacity="1.000000" fill-rule="evenodd"/>
		</g>
	</g>
</svg>
