<svg width="160.000000" height="60.000000" viewBox="0 0 160 60" fill="none" xmlns="http://www.w3.org/2000/svg" xmlns:xlink="http://www.w3.org/1999/xlink">
	<desc>
			Created with Pixso.
	</desc>
	<defs>
		<clipPath id="clip205_48">
			<rect id="Elastic logo 1" rx="0.000000" width="80.395340" height="27.000000" transform="translate(39.500000 16.500000) rotate(-0.003846)" fill="white" fill-opacity="0"/>
		</clipPath>
	</defs>
	<rect id="Rectangle 6" x="0.500000" y="0.500000" rx="6.000000" width="159.000000" height="59.000000" stroke="#1B1B1B" stroke-opacity="1.000000" stroke-width="1.000000"/>
	<g opacity="0.300000">
		<rect id="Elastic logo 1" rx="0.000000" width="80.395340" height="27.000000" transform="translate(39.500000 16.500000) rotate(-0.003846)" fill="#FFFFFF" fill-opacity="0"/>
		<g clip-path="url(#clip205_48)">
			<path id="Vector" d="M67 30.61C67.01 29.47 66.66 28.36 66.01 27.43C65.35 26.5 64.43 25.8 63.36 25.41C63.46 24.92 63.51 24.41 63.51 23.91C63.51 22.23 62.98 20.6 61.99 19.25C61.01 17.9 59.62 16.89 58.03 16.38C56.44 15.86 54.72 15.87 53.13 16.39C51.54 16.91 50.16 17.92 49.18 19.28C48.46 18.72 47.57 18.41 46.66 18.4C45.75 18.38 44.85 18.67 44.12 19.21C43.38 19.75 42.84 20.52 42.58 21.39C42.32 22.27 42.35 23.21 42.67 24.06C41.6 24.45 40.67 25.16 40.01 26.1C39.36 27.03 39 28.14 39 29.28C38.99 30.42 39.34 31.54 40 32.47C40.66 33.4 41.58 34.11 42.66 34.49C42.56 34.99 42.52 35.49 42.51 36C42.51 37.67 43.04 39.3 44.03 40.65C45.01 42 46.4 43 47.99 43.51C49.58 44.02 51.29 44.02 52.88 43.49C54.47 42.97 55.84 41.95 56.82 40.59C57.54 41.16 58.42 41.47 59.33 41.48C60.25 41.49 61.14 41.21 61.87 40.67C62.61 40.13 63.15 39.37 63.41 38.49C63.68 37.62 63.65 36.68 63.33 35.83C64.4 35.44 65.33 34.73 65.99 33.79C66.64 32.86 67 31.75 67 30.61L67 30.61Z" fill="#FFFFFF" fill-opacity="1.000000" fill-rule="nonzero"/>
			<path id="Vector" d="M50.01 28.01L56.14 30.81L62.32 25.39C62.41 24.94 62.46 24.49 62.45 24.03C62.45 22.56 61.98 21.12 61.1 19.93C60.23 18.74 59 17.87 57.59 17.43C56.18 16.99 54.66 17.02 53.27 17.51C51.88 17.99 50.67 18.91 49.84 20.13L48.81 25.46L50.01 28.01Z" fill="#000000" fill-opacity="1.000000" fill-rule="nonzero"/>
			<path id="Vector" d="M43.66 34.5C43.57 34.95 43.53 35.42 43.53 35.88C43.53 37.36 44 38.8 44.88 40C45.76 41.19 47 42.07 48.42 42.5C49.84 42.94 51.36 42.91 52.75 42.42C54.15 41.93 55.36 41 56.19 39.78L57.21 34.46L55.85 31.85L49.69 29.05L43.66 34.5Z" fill="#000000" fill-opacity="1.000000" fill-rule="nonzero"/>
			<path id="Vector" d="M43.63 23.89L47.83 24.89L48.74 20.11C48.17 19.68 47.48 19.44 46.76 19.44C46.04 19.43 45.34 19.66 44.77 20.09C44.19 20.51 43.77 21.11 43.56 21.8C43.36 22.49 43.38 23.22 43.63 23.89Z" fill="#000000" fill-opacity="1.000000" fill-rule="nonzero"/>
			<path id="Vector" d="M43.26 24.89C42.34 25.21 41.54 25.8 40.97 26.58C40.4 27.37 40.09 28.32 40.08 29.29C40.08 30.23 40.36 31.15 40.9 31.92C41.43 32.7 42.19 33.29 43.07 33.62L48.96 28.29L47.88 25.98L43.26 24.89Z" fill="#000000" fill-opacity="1.000000" fill-rule="nonzero"/>
			<path id="Vector" d="M57.27 39.78C57.84 40.21 58.53 40.44 59.25 40.45C59.96 40.45 60.66 40.22 61.23 39.8C61.81 39.37 62.23 38.77 62.44 38.09C62.64 37.4 62.62 36.67 62.38 36L58.18 35.02L57.27 39.78Z" fill="#000000" fill-opacity="1.000000" fill-rule="nonzero"/>
			<path id="Vector" d="M58.12 33.92L62.74 35C63.66 34.69 64.46 34.1 65.03 33.31C65.6 32.52 65.91 31.57 65.92 30.6C65.92 29.66 65.63 28.75 65.1 27.98C64.57 27.2 63.81 26.61 62.94 26.28L56.89 31.57L58.12 33.92Z" fill="#000000" fill-opacity="1.000000" fill-rule="nonzero"/>
			<path id="Vector" d="M78.16 35.59L78.72 35.54L78.76 36.67C77.51 36.86 76.25 36.97 74.99 36.98C73.6 36.98 72.62 36.58 72.04 35.78C71.46 34.97 71.17 33.72 71.17 32.02C71.17 28.64 72.52 26.95 75.21 26.95C76.51 26.95 77.48 27.31 78.12 28.04C78.76 28.77 79.08 29.91 79.08 31.46L79.01 32.56L72.64 32.56C72.64 33.63 72.83 34.42 73.22 34.93C73.6 35.45 74.28 35.7 75.23 35.7C76.19 35.71 77.17 35.67 78.16 35.59ZM77.64 31.41C77.64 30.22 77.45 29.39 77.07 28.9C76.69 28.41 76.07 28.16 75.22 28.16C74.36 28.16 73.72 28.42 73.28 28.93C72.85 29.45 72.63 30.27 72.62 31.41L77.64 31.41Z" fill="#FFFFFF" fill-opacity="1.000000" fill-rule="nonzero"/>
			<path id="Vector" d="M81.1 36.91L81.1 24.21L82.55 24.21L82.55 36.91L81.1 36.91Z" fill="#FFFFFF" fill-opacity="1.000000" fill-rule="nonzero"/>
			<path id="Vector" d="M91.66 30.05L91.66 34.92C91.66 35.41 92.87 35.38 92.87 35.38L92.79 36.66C91.77 36.66 90.93 36.75 90.43 36.26C89.34 36.74 88.15 36.99 86.96 36.98C86.07 36.98 85.39 36.73 84.93 36.23C84.47 35.73 84.23 35 84.23 34.06C84.23 33.12 84.47 32.43 84.95 31.99C85.43 31.54 86.17 31.27 87.19 31.17L90.22 30.88L90.22 30.05C90.22 29.4 90.08 28.93 89.79 28.64C89.64 28.5 89.46 28.39 89.26 28.31C89.06 28.24 88.85 28.21 88.63 28.22L84.83 28.22L84.83 26.95L88.54 26.95C89.63 26.95 90.43 27.2 90.92 27.7C91.42 28.2 91.66 28.99 91.66 30.05ZM85.72 33.99C85.72 35.17 86.21 35.77 87.18 35.77C88.06 35.76 88.94 35.61 89.77 35.32L90.21 35.17L90.21 31.98L87.36 32.25C86.78 32.31 86.36 32.47 86.11 32.75C85.85 33.04 85.72 33.45 85.72 33.99Z" fill="#FFFFFF" fill-opacity="1.000000" fill-rule="nonzero"/>
			<path id="Vector" d="M97.31 28.24C95.91 28.24 95.21 28.73 95.21 29.7C95.21 30.16 95.37 30.47 95.7 30.66C96.02 30.85 96.76 31.04 97.9 31.24C99.04 31.44 99.85 31.72 100.33 32.08C100.81 32.44 101.04 33.11 101.04 34.1C101.04 35.1 100.73 35.82 100.09 36.29C99.45 36.75 98.52 36.98 97.3 36.98C96.5 36.98 93.84 36.69 93.84 36.69L93.92 35.43C95.45 35.58 96.55 35.69 97.3 35.69C98.05 35.69 98.62 35.57 99.01 35.33C99.4 35.09 99.6 34.69 99.6 34.13C99.6 33.57 99.43 33.19 99.09 32.99C98.76 32.79 98.03 32.61 96.89 32.42C95.76 32.24 94.96 31.98 94.48 31.63C94.01 31.29 93.77 30.64 93.77 29.7C93.77 28.76 94.09 28.08 94.76 27.62C95.43 27.16 96.25 26.94 97.24 26.94C98.03 26.94 100.75 27.14 100.75 27.14L100.75 28.41C99.31 28.34 98.14 28.24 97.31 28.24Z" fill="#FFFFFF" fill-opacity="1.000000" fill-rule="nonzero"/>
			<path id="Vector" d="M108.02 28.39L104.95 28.39L104.95 33.01C104.95 34.11 105.03 34.84 105.19 35.19C105.36 35.53 105.74 35.71 106.34 35.71L108.06 35.59L108.16 36.79C107.51 36.91 106.85 36.98 106.19 37C105.18 37 104.49 36.76 104.1 36.27C103.72 35.78 103.52 34.84 103.52 33.47L103.52 28.39L102.16 28.39L102.16 27.14L103.53 27.14L103.53 24.19L104.96 24.19L104.96 27.14L108.02 27.14L108.02 28.39Z" fill="#FFFFFF" fill-opacity="1.000000" fill-rule="nonzero"/>
			<path id="Vector" d="M110.03 25.91L110.03 24.23L111.48 24.23L111.48 25.91L110.03 25.91ZM110.03 36.91L110.03 27.14L111.48 27.14L111.48 36.91L110.03 36.91Z" fill="#FFFFFF" fill-opacity="1.000000" fill-rule="nonzero"/>
			<path id="Vector" d="M117.75 26.94C118.47 26.97 119.19 27.05 119.9 27.18L120.37 27.23L120.31 28.41C119.55 28.31 118.79 28.26 118.03 28.24C116.94 28.24 116.19 28.5 115.8 29.02C115.41 29.54 115.21 30.51 115.21 31.91C115.21 33.33 115.4 34.31 115.76 34.86C116.13 35.41 116.89 35.69 118.06 35.69L120.34 35.51L120.4 36.71C119.51 36.86 118.61 36.95 117.71 36.98C116.21 36.98 115.17 36.6 114.6 35.82C114.02 35.05 113.74 33.75 113.74 31.92C113.74 30.08 114.05 28.8 114.66 28.06C115.28 27.32 116.31 26.95 117.75 26.94Z" fill="#FFFFFF" fill-opacity="1.000000" fill-rule="nonzero"/>
		</g>
	</g>
</svg>
