<svg width="160.000000" height="60.000000" viewBox="0 0 160 60" fill="none" xmlns="http://www.w3.org/2000/svg" xmlns:xlink="http://www.w3.org/1999/xlink">
	<desc>
			Created with Pixso.
	</desc>
	<defs/>
	<rect id="Rectangle 5" x="0.500000" y="0.500000" rx="6.000000" width="159.000000" height="59.000000" stroke="#1B1B1B" stroke-opacity="1.000000" stroke-width="1.000000"/>
	<g opacity="0.300000">
		<path id="Vector" d="M42.12 26.83L43.52 26.83C44.39 26.83 45.29 27 45.29 28.01C45.29 28.88 44.74 29.51 43.1 29.51L41.57 29.51L42.12 26.83ZM36 36.68L40.04 36.68L40.87 32.68L43.62 32.68C47.11 32.68 49.37 30.38 49.37 27.7C49.37 24.77 47.8 23.41 45.36 23.41L38.78 23.41L36 36.68Z" fill="#FFFFFF" fill-opacity="1.000000" fill-rule="nonzero"/>
		<path id="Vector" d="M54.35 27.97L54.84 31.94L52.29 31.94L54.35 27.97ZM45.61 36.68L49.79 36.68L50.8 34.8L55.12 34.8L55.32 36.68L59.33 36.68L57.31 23.41L53.27 23.41L45.61 36.68Z" fill="#FFFFFF" fill-opacity="1.000000" fill-rule="nonzero"/>
		<path id="Vector" d="M61.04 31.8L58.18 23.41L62.29 23.41L63.54 28.36L66.78 23.41L71.59 23.41L65.11 31.77L64.1 36.68L60.03 36.68L61.04 31.8Z" fill="#FFFFFF" fill-opacity="1.000000" fill-rule="nonzero"/>
		<path id="Vector" d="M81.34 31.63C81.1 32.99 80.05 36.99 74.51 36.99C70.65 36.99 68.8 34.49 68.8 30.93C68.8 26.65 71.48 23.06 76.01 23.06C78.97 23.06 81.62 24.35 81.69 28.32L77.82 28.32C77.86 27.07 77.26 26.37 76.01 26.37C73.75 26.37 72.91 28.98 72.91 30.86C72.91 31.98 73.19 33.65 75.07 33.65C76.36 33.65 77.09 32.78 77.33 31.59L81.34 31.63Z" fill="#FFFFFF" fill-opacity="1.000000" fill-rule="nonzero"/>
		<path id="Vector" d="M83.71 23.41L87.82 23.41L86.84 28.01L90.57 28.01L91.54 23.41L95.65 23.41L92.87 36.68L88.79 36.68L89.87 31.42L86.15 31.42L85.03 36.68L80.96 36.68L83.71 23.41Z" fill="#FFFFFF" fill-opacity="1.000000" fill-rule="nonzero"/>
		<path id="Vector" d="M96.73 23.41L107.7 23.41L107.01 26.82L100.11 26.82L99.76 28.46L106.17 28.46L105.51 31.63L99.1 31.63L98.75 33.26L105.79 33.26L105.09 36.68L93.95 36.68L96.73 23.41Z" fill="#FFFFFF" fill-opacity="1.000000" fill-rule="nonzero"/>
		<path id="Vector" d="M110.52 29.64L107.46 23.41L111.92 23.41L113.2 26.86L115.85 23.41L120.69 23.41L115.16 29.64L118.39 36.68L113.8 36.68L112.33 32.98L109.24 36.68L104.22 36.68L110.52 29.64Z" fill="#FFFFFF" fill-opacity="1.000000" fill-rule="nonzero"/>
		<path id="Vector" d="M121.21 24C121.21 23.51 121.56 23.13 122.05 23.13C122.5 23.13 122.89 23.51 122.89 24C122.89 24.49 122.54 24.87 122.05 24.87C121.6 24.87 121.21 24.49 121.21 24ZM121.04 24C121.04 24.59 121.49 25.01 122.05 25.01C122.61 25.01 123.06 24.59 123.06 24C123.06 23.44 122.61 22.99 122.05 22.99C121.49 22.99 121.04 23.44 121.04 24ZM121.67 24.59L121.84 24.59L121.84 24.1L122.02 24.1L122.33 24.63L122.54 24.63L122.19 24.1C122.36 24.1 122.5 24 122.5 23.79C122.5 23.55 122.36 23.44 122.08 23.44L121.67 23.44L121.67 24.59ZM121.84 23.58L122.08 23.58C122.22 23.58 122.33 23.62 122.33 23.76C122.33 23.93 122.19 23.96 122.02 23.96L121.84 23.96L121.84 23.58Z" fill="#FFFFFF" fill-opacity="1.000000" fill-rule="nonzero"/>
	</g>
</svg>
