<svg width="160.000000" height="60.000000" viewBox="0 0 160 60" fill="none" xmlns="http://www.w3.org/2000/svg" xmlns:xlink="http://www.w3.org/1999/xlink">
	<desc>
			Created with Pixso.
	</desc>
	<defs/>
	<rect id="Rectangle 7" x="0.500000" y="0.500000" rx="6.000000" width="159.000000" height="59.000000" stroke="#1B1B1B" stroke-opacity="1.000000" stroke-width="1.000000"/>
	<g opacity="0.300000">
		<path id="Vector" d="M110.08 29.91C110.08 25.64 108.01 22.26 104.05 22.27C100.08 22.27 97.68 25.64 97.68 29.88C97.68 34.9 100.51 37.44 104.59 37.44C106.57 37.44 108.07 36.98 109.21 36.35L109.21 33.01C108.07 33.58 106.77 33.93 105.12 33.93C103.5 33.93 102.07 33.36 101.88 31.39L110.04 31.39C110.04 31.18 110.08 30.31 110.08 29.91ZM101.83 28.32C101.83 26.44 102.98 25.65 104.03 25.65C105.05 25.65 106.14 26.44 106.14 28.32L101.83 28.32Z" fill="#FFFFFF" fill-opacity="1.000000" fill-rule="evenodd"/>
		<path id="Vector" d="M91.23 22.27C89.6 22.27 88.55 23.03 87.96 23.57L87.75 22.53L84.07 22.53L84.08 41.99L88.25 41.11L88.26 36.39C88.86 36.82 89.75 37.44 91.22 37.44C94.21 37.44 96.93 35.03 96.93 29.74C96.91 24.9 94.15 22.27 91.23 22.27ZM90.23 33.76C89.25 33.76 88.66 33.41 88.26 32.98L88.25 26.79C88.68 26.3 89.28 25.97 90.23 25.97C91.75 25.97 92.8 27.67 92.8 29.86C92.8 32.1 91.77 33.76 90.23 33.76Z" fill="#FFFFFF" fill-opacity="1.000000" fill-rule="evenodd"/>
		<path id="Vector" d="M78.33 21.28L82.52 20.38L82.52 16.99L78.33 17.88L78.33 21.28Z" fill="#FFFFFF" fill-opacity="1.000000" fill-rule="evenodd"/>
		<path id="Vector" d="M78.33 22.55L82.52 22.55L82.52 37.15L78.33 37.15L78.33 22.55Z" fill="#FFFFFF" fill-opacity="1.000000" fill-rule="evenodd"/>
		<path id="Vector" d="M73.84 23.79L73.58 22.55L69.97 22.55L69.97 37.15L74.15 37.15L74.14 27.26C75.13 25.97 76.8 26.21 77.32 26.39L77.32 22.55C76.78 22.35 74.83 21.98 73.84 23.79Z" fill="#FFFFFF" fill-opacity="1.000000" fill-rule="evenodd"/>
		<path id="Vector" d="M65.5 18.93L61.43 19.8L61.41 33.17C61.41 35.64 63.26 37.45 65.73 37.45C67.1 37.45 68.1 37.2 68.65 36.9L68.65 33.52C68.12 33.73 65.48 34.5 65.48 32.03L65.48 26.11L68.65 26.11L68.65 22.55L65.48 22.55L65.5 18.93Z" fill="#FFFFFF" fill-opacity="1.000000" fill-rule="evenodd"/>
		<path id="Vector" d="M54.22 26.79C54.22 26.14 54.75 25.89 55.64 25.89C56.9 25.89 58.51 26.27 59.78 26.96L59.78 23.04C58.39 22.49 57.02 22.27 55.64 22.27C52.25 22.27 50 24.04 50 26.99C50 31.6 56.34 30.86 56.34 32.85C56.34 33.62 55.67 33.87 54.74 33.87C53.35 33.87 51.58 33.3 50.18 32.53L50.18 36.5C51.73 37.17 53.3 37.46 54.74 37.46C58.21 37.46 60.59 35.74 60.59 32.75C60.58 27.78 54.22 28.66 54.22 26.79Z" fill="#FFFFFF" fill-opacity="1.000000" fill-rule="evenodd"/>
	</g>
</svg>
