<svg width="160.000000" height="60.000000" viewBox="0 0 160 60" fill="none" xmlns="http://www.w3.org/2000/svg" xmlns:xlink="http://www.w3.org/1999/xlink">
	<desc>
			Created with Pixso.
	</desc>
	<defs>
		<clipPath id="clip205_23">
			<rect id="dropbox_blue 1" rx="0.000000" width="93.827576" height="21.000000" transform="translate(33.500000 19.500000) rotate(-0.003846)" fill="white" fill-opacity="0"/>
		</clipPath>
	</defs>
	<rect id="Rectangle 4" x="0.500000" y="0.500000" rx="6.000000" width="159.000000" height="59.000000" stroke="#1B1B1B" stroke-opacity="1.000000" stroke-width="1.000000"/>
	<g opacity="0.300000">
		<rect id="dropbox_blue 1" rx="0.000000" width="93.827576" height="21.000000" transform="translate(33.500000 19.500000) rotate(-0.003846)" fill="#FFFFFF" fill-opacity="0"/>
		<g clip-path="url(#clip205_23)">
			<path id="XMLID_29_" d="M59.61 23.67L64.19 23.67C68.11 23.67 70.59 26.2 70.59 30.14C70.59 34.09 68.12 36.62 64.19 36.62L59.61 36.62L59.61 23.67ZM64.09 34.25C66.55 34.25 67.91 32.67 67.9 30.16C67.9 27.63 66.55 26.05 64.09 26.05L62.29 26.05L62.29 34.25L64.09 34.25Z" fill="#FFFFFF" fill-opacity="1.000000" fill-rule="nonzero"/>
			<path id="XMLID_27_" d="M77.53 29.78C77.17 29.56 76.71 29.46 76.21 29.46C75.33 29.46 74.61 29.93 74.42 30.79L74.42 36.63L71.81 36.63L71.81 27.2L74.43 27.2L74.43 28.12C74.83 27.45 75.6 26.98 76.54 26.98C76.98 26.98 77.39 27.07 77.53 27.15L77.53 29.78Z" fill="#FFFFFF" fill-opacity="1.000000" fill-rule="nonzero"/>
			<rect id="Rectangle 4" x="9.000000" y="2.000000" rx="6.000000" width="160.000000" height="60.000000" fill="#1B1B1B" fill-opacity="0"/>
			<rect id="Rectangle 4" x="9.500000" y="2.500000" rx="6.000000" width="159.000000" height="59.000000" stroke="#1B1B1B" stroke-opacity="1.000000" stroke-width="1.000000"/>
			<path id="XMLID_24_" d="M82.75 36.84C80.01 36.84 78.12 34.82 78.12 31.93C78.12 29.02 80 26.98 82.75 26.98C85.49 26.98 87.36 29.01 87.36 31.93C87.36 34.82 85.49 36.84 82.75 36.84ZM82.75 29.21C81.43 29.21 80.73 30.35 80.73 31.93C80.73 33.48 81.45 34.63 82.75 34.63C84.05 34.63 84.77 33.49 84.77 31.93C84.77 30.35 84.05 29.21 82.75 29.21Z" fill="#FFFFFF" fill-opacity="1.000000" fill-rule="nonzero"/>
			<path id="XMLID_21_" d="M91.11 40.12L88.49 40.12L88.49 27.2L91.11 27.2L91.11 27.98C91.52 27.48 92.46 26.99 93.47 26.99C96.21 26.99 97.77 29.27 97.77 31.94C97.77 34.59 96.21 36.86 93.47 36.86C92.46 36.86 91.52 36.38 91.11 35.87L91.11 40.12ZM91.11 33.47C91.42 34.13 92.12 34.57 92.88 34.57C94.29 34.57 95.14 33.43 95.14 31.93C95.14 30.41 94.29 29.27 92.88 29.27C92.09 29.27 91.42 29.74 91.11 30.37L91.11 33.47Z" fill="#FFFFFF" fill-opacity="1.000000" fill-rule="nonzero"/>
			<path id="XMLID_18_" d="M101.54 36.63L98.9 36.63L98.89 22.91L101.54 22.91L101.54 27.98C101.95 27.47 102.89 26.99 103.9 26.99C106.65 26.99 108.19 29.23 108.19 31.94C108.19 34.64 106.65 36.86 103.9 36.86C102.89 36.86 101.96 36.38 101.54 35.87L101.54 36.63ZM101.54 33.47C101.83 34.12 102.52 34.57 103.31 34.57C104.72 34.57 105.57 33.43 105.57 31.92C105.57 30.41 104.72 29.27 103.31 29.27C102.55 29.27 101.83 29.74 101.54 30.37L101.54 33.47Z" fill="#FFFFFF" fill-opacity="1.000000" fill-rule="nonzero"/>
			<path id="XMLID_15_" d="M113.75 36.87C111.01 36.87 109.12 34.85 109.12 31.95C109.12 29.04 111.01 27.01 113.75 27.01C116.5 27.01 118.37 29.03 118.37 31.95C118.37 34.84 116.48 36.87 113.75 36.87ZM113.75 29.23C112.44 29.23 111.73 30.37 111.73 31.95C111.73 33.5 112.45 34.66 113.75 34.66C115.05 34.66 115.77 33.52 115.77 31.95C115.77 30.37 115.05 29.23 113.75 29.23Z" fill="#FFFFFF" fill-opacity="1.000000" fill-rule="nonzero"/>
			<path id="XMLID_13_" d="M124.25 31.76L127.69 36.64L124.79 36.64L122.77 33.68L120.72 36.64L117.97 36.64L121.38 31.82L118.18 27.21L121.07 27.21L122.89 29.89L124.74 27.21L127.48 27.21L124.25 31.76Z" fill="#FFFFFF" fill-opacity="1.000000" fill-rule="nonzero"/>
			<path id="XMLID_11_" d="M39.94 19.23L33.12 23.62L37.84 27.43L44.69 23.19L39.94 19.23Z" fill="#FFFFFF" fill-opacity="1.000000" fill-rule="nonzero"/>
			<path id="XMLID_10_" d="M33.12 31.15L39.94 35.62L44.69 31.66L37.84 27.43L33.12 31.15Z" fill="#FFFFFF" fill-opacity="1.000000" fill-rule="nonzero"/>
			<path id="XMLID_9_" d="M44.69 31.66L49.45 35.62L56.24 31.19L51.53 27.43L44.69 31.66Z" fill="#FFFFFF" fill-opacity="1.000000" fill-rule="nonzero"/>
			<path id="XMLID_8_" d="M56.23 23.66L49.44 19.23L44.69 23.19L51.53 27.43L56.23 23.66Z" fill="#FFFFFF" fill-opacity="1.000000" fill-rule="nonzero"/>
			<path id="XMLID_7_" d="M44.7 32.51L39.94 36.47L37.89 35.14L37.89 36.63L44.7 40.72L51.51 36.63L51.51 35.14L49.47 36.47L44.7 32.51Z" fill="#FFFFFF" fill-opacity="1.000000" fill-rule="nonzero"/>
		</g>
	</g>
</svg>
